<?xml version="1.0" standalone="no"?>
<!DOCTYPE svg PUBLIC "-//W3C//DTD SVG 20010904//EN"
 "http://www.w3.org/TR/2001/REC-SVG-20010904/DTD/svg10.dtd">
<svg version="1.0" xmlns="http://www.w3.org/2000/svg"
 width="65.000000pt" height="53.000000pt" viewBox="0 0 65.000000 53.000000"
 preserveAspectRatio="xMidYMid meet">

<g transform="translate(0.000000,53.000000) scale(0.100000,-0.100000)"
fill="#000000" stroke="none">
<path d="M0 265 l0 -265 325 0 325 0 0 265 0 265 -325 0 -325 0 0 -265z m320
205 c0 -14 -7 -20 -24 -20 -29 0 -36 -21 -36 -115 l0 -69 51 49 c27 28 60 65
71 84 l22 34 -22 15 c-12 8 -22 21 -22 28 0 11 20 14 90 14 83 0 90 -1 90 -20
0 -11 -7 -20 -15 -20 -25 0 -59 -27 -113 -88 l-50 -58 36 -59 c23 -38 32 -60
24 -63 -7 -2 -10 -13 -6 -29 7 -25 6 -25 -18 -9 -23 15 -38 13 -38 -6 0 -5 10
-13 23 -18 21 -8 21 -9 1 -9 -15 -1 -28 13 -47 47 -44 78 -43 77 -61 63 -22
-18 -22 -123 0 -145 8 -9 22 -16 30 -16 8 0 14 -7 14 -15 0 -12 -19 -15 -110
-15 -88 0 -110 3 -110 14 0 8 14 17 30 21 l30 7 -2 186 -3 187 -27 3 c-20 2
-28 9 -28 23 0 18 8 19 110 19 103 0 110 -1 110 -20z m140 -319 c0 -6 -4 -13
-10 -16 -5 -3 -10 1 -10 9 0 9 5 16 10 16 6 0 10 -4 10 -9z m-45 -81 c-5 -16
-10 -19 -18 -11 -7 7 -6 15 3 26 17 20 24 13 15 -15z m79 6 c20 8 66 -14 66
-31 0 -12 -12 -15 -52 -14 -49 0 -116 17 -77 18 12 1 15 8 11 28 -5 25 -4 26
18 10 12 -8 28 -13 34 -11z"/>
</g>
</svg>
